<svg width="40" height="40" viewBox="0 0 40 40" fill="none" xmlns="http://www.w3.org/2000/svg">
<path d="M26.983 3.33337H13.0163C6.94967 3.33337 3.33301 6.95004 3.33301 13.0167V26.9667C3.33301 33.05 6.94967 36.6667 13.0163 36.6667H26.9663C33.033 36.6667 36.6497 33.05 36.6497 26.9834V13.0167C36.6663 6.95004 33.0497 3.33337 26.983 3.33337ZM19.1663 28.75C19.1663 29.35 18.5663 29.75 18.0163 29.5167C15.9997 28.65 13.3663 27.85 11.533 27.6167L11.2163 27.5834C10.1997 27.45 9.36634 26.5 9.36634 25.4667V12.6334C9.36634 11.35 10.3997 10.4 11.6663 10.5C13.7497 10.6667 16.833 11.6667 18.7663 12.7667C19.033 12.9167 19.1663 13.2 19.1663 13.4834V28.75ZM30.633 25.45C30.633 26.4834 29.7997 27.4334 28.783 27.5667L28.433 27.6C26.6163 27.85 23.9997 28.6334 21.983 29.4834C21.433 29.7167 20.833 29.3167 20.833 28.7167V13.4667C20.833 13.1667 20.983 12.8834 21.2497 12.7334C23.183 11.65 26.1997 10.6834 28.2497 10.5H28.3163C29.5997 10.5 30.633 11.5334 30.633 12.8167V25.45Z" fill="#546FFF"/>
</svg>
